<svg width="36" height="32" viewBox="0 0 36 32" fill="none" xmlns="http://www.w3.org/2000/svg">
<g id="Group">
<g id="Group_2">
<path id="Vector" d="M35.6635 29.7715C35.6464 29.6987 35.6498 29.6294 35.6498 29.5601C35.6498 21.2213 35.6498 12.8825 35.6498 4.5437C35.6498 4.39467 35.6498 4.24911 35.6327 4.10008C35.5233 3.08805 35.1302 2.20427 34.4432 1.46258C33.7629 0.724358 32.9289 0.259937 31.941 0.0797141C31.7872 0.0519874 31.6265 0.0589191 31.4795 0H31.3599C31.3086 0.0311925 31.2505 0.0138633 31.1992 0.0138633C29.7977 0.0138633 28.3997 0.0138633 26.9982 0.0138633C26.9435 0.0138633 26.8888 0.00346583 26.8341 0.0242608C26.7623 0.0381241 26.7042 0.0797141 26.6529 0.128236C25.9385 0.776346 25.2275 1.42446 24.5131 2.07257C24.4105 2.16614 24.3729 2.27358 24.3866 2.41222C24.4071 2.63056 24.4242 2.84891 24.4276 3.06726C24.4413 4.12434 24.4584 5.18488 24.4584 6.24196C24.4618 11.5066 24.4755 16.7677 24.4345 22.0323C24.4174 24.143 24.4276 26.2571 24.4037 28.3678C24.39 29.3972 24.4037 30.423 24.3798 31.4524C24.3695 31.8856 24.4447 32.0035 24.9164 32.0035C27.6066 31.9931 30.2968 31.9965 32.9904 31.9965C33.069 31.9965 33.1408 31.9931 33.2126 31.9341C33.9885 31.3138 34.7645 30.6968 35.5438 30.0799C35.643 30.0002 35.6874 29.8962 35.6601 29.7715H35.6635ZM26.6085 1.73291C26.6051 1.85075 26.6016 1.96859 26.6085 2.08296C26.6187 2.20427 26.5777 2.24239 26.4581 2.23893C26.0957 2.23199 25.7368 2.23893 25.3745 2.23893C25.3301 2.23893 25.2822 2.24932 25.2446 2.21466C25.6753 1.81956 26.1094 1.42792 26.5435 1.03628C26.5606 1.02242 26.5846 0.935774 26.6256 1.02242C26.5846 1.2581 26.6187 1.49724 26.6085 1.73638V1.73291ZM33.1066 31.2618C33.0656 31.2271 33.0724 31.1821 33.0724 31.137C33.0724 30.8008 33.0724 30.4646 33.0724 30.125C33.5476 30.125 34.0227 30.125 34.5389 30.125C34.0432 30.5201 33.5715 30.8909 33.1032 31.2618H33.1066ZM35.0687 29.3209C35.0687 29.3868 35.0619 29.4526 35.0584 29.5185C34.4602 29.5185 33.8655 29.515 33.2673 29.5115C33.1374 29.5115 33.0724 29.4457 33.0724 29.314C33.0724 21.7307 33.0724 14.1475 33.0724 6.56428C33.0724 5.44828 32.7067 4.46399 31.9581 3.63565C31.2437 2.84545 30.3583 2.39142 29.3123 2.26665C28.7278 2.19734 28.1399 2.23893 27.5519 2.23546C27.2306 2.23546 27.2306 2.23546 27.2306 1.90967C27.2306 1.47644 27.2238 1.04668 27.2204 0.613452C27.234 0.613452 27.2511 0.603054 27.2648 0.603054C28.6321 0.603054 29.996 0.575328 31.3599 0.613452C32.5016 0.64811 33.4416 1.16105 34.1697 2.05177C34.7781 2.79346 35.0687 3.65298 35.0687 4.62342C35.0687 12.8548 35.0687 21.0861 35.0687 29.3174V29.3209Z" fill="#202020"/>
<path id="Vector_2" d="M31.3632 0C31.3358 0.0450558 31.2914 0.0311925 31.2538 0.0311925C29.7908 0.0311925 28.3278 0.0311925 26.8647 0.0311925C26.8545 0.0311925 26.8442 0.0311925 26.834 0.0277266C26.834 0.0173291 26.834 0.0103975 26.8408 0.00346583H31.3598L31.3632 0Z" fill="#202020"/>
<path id="Vector_3" d="M35.0586 29.515C35.0142 29.5565 34.9629 29.5357 34.9151 29.5357C32.3992 29.5357 29.8834 29.5357 27.3675 29.5427C27.2445 29.5427 27.2 29.5254 27.2 29.3833C27.2035 20.3478 27.2 11.309 27.2 2.27354C27.2 1.77099 27.2 1.26498 27.2 0.762434C27.2 0.713912 27.183 0.661925 27.2137 0.613403C27.2889 0.665391 27.2718 0.748571 27.2718 0.821353C27.2718 1.20953 27.2718 1.59423 27.2718 1.98241C27.2718 2.16956 27.2855 2.17996 27.4701 2.18342C27.8803 2.18342 28.2939 2.17996 28.7041 2.18342C29.3536 2.19036 29.9825 2.2978 30.5773 2.57506C31.4284 2.97363 32.0882 3.58015 32.5531 4.40849C32.9496 5.11552 33.1137 5.87453 33.1137 6.6786C33.1137 14.1683 33.1137 21.6545 33.1137 29.1441C33.1137 29.5011 33.0966 29.463 33.435 29.463C33.8964 29.463 34.3579 29.463 34.8194 29.463C34.898 29.463 34.9834 29.4456 35.045 29.5184L35.0586 29.515Z" fill="#58CDCE"/>
<path id="Vector_4" d="M25.0643 7.88827C25.0609 7.84321 25.0507 7.79816 25.0507 7.7531C25.0438 6.5054 25.0404 5.2577 25.0267 4.01347C25.0233 3.55945 25.0062 3.10889 24.9823 2.65487C24.972 2.50237 25.0028 2.39146 25.1327 2.30828C25.1737 2.28056 25.2079 2.2459 25.2489 2.21124C25.4711 2.15579 25.6967 2.19045 25.9223 2.18351C26.083 2.18005 26.2436 2.18005 26.4043 2.18351C26.5205 2.18351 26.5649 2.13499 26.5615 2.02062C26.5615 1.74682 26.5581 1.47302 26.5615 1.19922C26.5615 1.13683 26.5342 1.05019 26.6299 1.02246C26.6299 1.49728 26.6367 1.96863 26.6367 2.44345C26.6367 11.4615 26.6367 20.4762 26.6367 29.4942C26.6367 29.6225 26.6025 29.7091 26.5034 29.7888C26.0146 30.1943 25.5292 30.6068 25.0438 31.0157C25.0301 31.0261 25.0131 31.04 24.9823 31.0643C24.9823 30.6518 24.9823 30.2567 24.9823 29.8616C24.9823 29.1789 24.9891 28.4961 24.9925 27.8168C25.0028 26.2225 25.0131 24.6317 25.0233 23.0374C25.0301 22.1606 25.037 21.2872 25.0438 20.4103C25.0575 20.3895 25.0677 20.3653 25.0677 20.341C25.0677 20.3063 25.0677 20.2682 25.0677 20.2336C25.0677 15.1526 25.0951 10.0717 25.0814 4.99084C25.0814 4.95618 25.0917 4.92152 25.078 4.89379C25.0883 4.90766 25.0814 4.92845 25.0814 4.94925C25.0814 5.88502 25.0814 6.82426 25.0814 7.76003C25.0814 7.80509 25.0951 7.85361 25.0643 7.89173V7.88827Z" fill="#58CDCE"/>
<path id="Vector_5" d="M33.1061 31.2617C33.0104 31.3796 32.8908 31.4142 32.737 31.4142C30.3818 31.4108 28.0266 31.4142 25.6748 31.4142H25.4766C25.5859 31.3207 25.6646 31.2513 25.7432 31.1855C26.1329 30.8562 26.5226 30.5305 26.9122 30.2012C26.9635 30.1561 27.0114 30.1284 27.0866 30.1284C29.0828 30.1284 31.0825 30.1319 33.0788 30.1319C33.1096 30.1596 33.1266 30.1977 33.1266 30.2393C33.1266 30.5824 33.154 30.9256 33.1096 31.2652L33.1061 31.2617Z" fill="#58CDCE"/>
<path id="Vector_6" d="M25.063 7.88822V4.7655C25.1143 4.80016 25.0938 4.84175 25.0938 4.87294C25.0938 9.99891 25.0938 15.1283 25.0938 20.2543C25.0938 20.3063 25.1279 20.3825 25.0391 20.4068C25.0391 20.3964 25.0391 20.386 25.0391 20.3756C25.0596 20.3167 25.0493 20.2543 25.0493 20.1954C25.0493 18.3342 25.0493 16.4765 25.0493 14.6154C25.0493 14.5565 25.0391 14.4941 25.0596 14.4352C25.0596 14.404 25.0527 14.3762 25.0527 14.3451C25.0527 12.224 25.0527 10.1029 25.0527 7.98179C25.0527 7.9506 25.0527 7.91941 25.0562 7.89168L25.063 7.88822Z" fill="#58CDCE"/>
<path id="Vector_7" d="M25.0626 14.4352C25.0626 16.376 25.0626 18.3204 25.0626 20.2612C25.0626 20.2994 25.0694 20.3444 25.0386 20.3756C25.0386 19.3532 25.0352 18.3342 25.0386 17.3118C25.0386 16.4142 25.0455 15.5131 25.0489 14.6154C25.0489 14.5565 25.0352 14.4941 25.0626 14.4352Z" fill="#58CDCE"/>
</g>
<g id="Group_3">
<path id="Vector_8" d="M11.376 0.488739C11.376 0.433286 11.376 0.377833 11.376 0.32238C11.376 0.180281 11.3179 0.0763058 11.1812 0.03125C8.29956 0.03125 5.41454 0.03125 2.53294 0.03125C2.40646 0.0589766 2.3757 0.194144 2.28682 0.266926C1.58266 0.856117 0.881916 1.45224 0.177753 2.03796C0.0478583 2.14541 -0.00341567 2.26671 2.60165e-06 2.43307C0.0102574 2.8767 0.0170939 3.31686 0.0205122 3.76048C0.0341853 5.51073 0.0341853 7.26097 0.0512766 9.01121C0.0752045 11.2363 0.068368 13.4613 0.0752045 15.6864C0.0752045 16.584 0.082041 17.4782 0.082041 18.3759C0.082041 20.4207 0.0854593 22.469 0.0854593 24.5139C0.0854593 26.382 0.0854593 28.25 0.0581132 30.1181C0.0512766 30.638 0.0581132 31.1544 2.60165e-06 31.6708C-0.020507 31.8441 0.12306 31.9931 0.30081 32.0001C0.376012 32.0001 0.451214 31.9966 0.526416 31.9966C3.21659 31.9966 5.91019 31.9966 8.60036 31.9966C8.69949 31.9966 8.78153 31.9758 8.86357 31.9134C9.62243 31.3208 10.3779 30.7246 11.147 30.1458C11.3213 30.0176 11.3726 29.879 11.3726 29.6745C11.3726 19.9459 11.3726 10.2173 11.3726 0.485274L11.376 0.488739ZM2.31759 1.38639C2.32442 1.63939 2.31759 1.8924 2.31759 2.14887C2.31759 2.19046 2.3381 2.23898 2.25606 2.23898C1.82194 2.23552 1.3844 2.23552 0.950281 2.23205C0.93319 2.23205 0.916098 2.21472 0.899007 2.20779C1.36389 1.81615 1.82878 1.42105 2.29366 1.02941C2.34493 1.14725 2.31417 1.26855 2.31759 1.38639ZM8.7747 31.2237C8.7747 30.8563 8.7747 30.4924 8.7747 30.125C9.23958 30.125 9.70446 30.125 10.2172 30.125C9.71814 30.5063 9.24984 30.8667 8.77812 31.2237H8.7747ZM10.7846 29.3626C10.7846 29.4145 10.7778 29.4631 10.7744 29.5151C10.1659 29.5151 9.5609 29.5047 8.95245 29.5151C8.79521 29.5151 8.76444 29.4735 8.76444 29.321C8.76786 20.3687 8.76444 11.4165 8.76444 2.4608C8.76444 2.20086 8.79521 2.23552 8.53884 2.23552C6.66563 2.23552 4.79583 2.23552 2.92262 2.23552C2.92262 1.72604 2.92262 1.21656 2.91579 0.707087C2.91579 0.616975 2.94313 0.589248 3.02517 0.603112C3.03884 0.603112 3.05593 0.603112 3.06961 0.603112C5.58545 0.603112 8.1013 0.603112 10.6171 0.603112C10.7402 0.603112 10.7846 0.620441 10.7846 0.76254C10.7812 10.297 10.7812 19.8315 10.7812 29.366L10.7846 29.3626Z" fill="#202020"/>
<path id="Vector_9" d="M2.5293 0.0311925C2.5293 0.0311925 2.5293 0.0103975 2.5293 0C5.4109 0 8.29592 0 11.1775 0C11.1775 0.0103975 11.1775 0.020795 11.1775 0.0277266C11.0955 0.100509 10.9963 0.0797141 10.9041 0.0797141C9.18808 0.0797141 7.47211 0.0797141 5.75614 0.0797141C4.76826 0.0797141 3.77696 0.0797141 2.78909 0.0797141C2.70021 0.0797141 2.60792 0.100509 2.5293 0.0311925Z" fill="#202020"/>
<path id="Vector_10" d="M10.7746 29.515C10.7302 29.5566 10.6789 29.5358 10.631 29.5358C8.11178 29.5358 5.59252 29.5358 3.06984 29.5427C2.93994 29.5427 2.91602 29.5046 2.91602 29.3833C2.91602 20.3548 2.91602 11.3263 2.91602 2.29435C2.91602 2.27355 2.91602 2.25276 2.91943 2.23196C2.97413 2.17651 3.04591 2.17997 3.11769 2.17997C4.92938 2.17997 6.74106 2.17997 8.55616 2.17997C8.77493 2.17997 8.80569 2.2181 8.81253 2.43991C8.81253 2.51616 8.81253 2.59241 8.81253 2.66866C8.81253 11.4857 8.81253 20.3028 8.81253 29.1199C8.81253 29.4942 8.79202 29.4595 9.1441 29.4595C9.6124 29.4595 10.0773 29.4595 10.5456 29.4595C10.6242 29.4595 10.7097 29.4457 10.7712 29.515H10.7746Z" fill="#58CDCE"/>
<path id="Vector_11" d="M2.29429 1.02933C2.30796 1.00854 2.32847 0.998138 2.33531 1.02933C2.34556 1.06745 2.34215 1.10904 2.34215 1.15063C2.34215 10.5812 2.34556 20.0151 2.3524 29.4457C2.3524 29.5531 2.31822 29.619 2.23618 29.6883C1.74737 30.0938 1.26539 30.5062 0.779997 30.9186C0.738978 30.9533 0.69454 30.988 0.639848 31.033C0.639848 30.7107 0.629593 30.4022 0.639848 30.0972C0.667194 29.3659 0.660357 28.6312 0.660357 27.8999C0.663776 25.3698 0.667194 22.8398 0.667194 20.3097C0.667194 17.9391 0.663776 15.565 0.653521 13.1944C0.646684 11.1288 0.629593 9.06312 0.619338 6.99749C0.612502 5.73593 0.602247 4.47436 0.591992 3.2128C0.591992 3.03605 0.59541 2.85582 0.578319 2.67906C0.564646 2.5231 0.61592 2.41566 0.742396 2.33595C0.797088 2.30129 0.844944 2.25623 0.896218 2.21464C1.17652 2.16612 2.14047 2.17652 2.27036 2.23544C2.27036 1.90965 2.27036 1.58733 2.27036 1.26154C2.27036 1.18529 2.27036 1.10904 2.29087 1.03626L2.29429 1.02933Z" fill="#58CDCE"/>
<path id="Vector_12" d="M8.77411 31.2272C8.6613 31.3589 8.52799 31.4178 8.34341 31.4143C5.99506 31.4074 3.64329 31.4109 1.29494 31.4109C1.24366 31.4109 1.18555 31.4247 1.11719 31.3901C1.3257 31.2133 1.52738 31.04 1.72906 30.8667C1.9991 30.638 2.26914 30.4127 2.53919 30.184C2.58704 30.1424 2.6349 30.1216 2.69985 30.1216C4.71321 30.1216 6.72656 30.1216 8.73992 30.1216C8.75018 30.1216 8.76043 30.1216 8.77069 30.125C8.80829 30.1632 8.81171 30.2152 8.81171 30.2671C8.81513 30.5375 8.81171 30.8113 8.81171 31.0816C8.81171 31.1336 8.79804 31.1821 8.77069 31.2237L8.77411 31.2272Z" fill="#58CDCE"/>
</g>
<g id="Group_4">
<path id="Vector_13" d="M23.4074 4.60954C23.4074 3.62524 23.1408 2.72412 22.5665 1.92698C21.7495 0.793658 20.6454 0.149014 19.2542 0.02771C19.1927 0.02771 19.1311 0.02771 19.0696 0.02771C17.5724 0.02771 16.0752 0.02771 14.5746 0.02771C14.5165 0.0346416 14.4789 0.0762316 14.4378 0.114356C13.72 0.752068 13.0056 1.38978 12.2843 2.02056C12.1544 2.13493 12.0963 2.25277 12.0998 2.42606C12.1134 3.53166 12.1203 4.6338 12.1271 5.7394C12.1408 8.29371 12.151 10.848 12.1613 13.4058C12.1681 14.903 12.175 16.4003 12.175 17.8941C12.175 21.7065 12.1715 25.5189 12.1647 29.3313C12.1647 30.0453 12.151 30.7557 12.1271 31.4662C12.11 31.9584 12.1305 31.993 12.6193 31.993C15.3403 31.993 18.0612 31.993 20.7822 31.993C20.8881 31.993 20.9702 31.9653 21.0522 31.896C21.7598 31.3103 22.4605 30.7211 23.1818 30.1492C23.3595 30.0106 23.4142 29.865 23.4142 29.6502C23.4108 21.301 23.4108 12.9553 23.4142 4.60607L23.4074 4.60954ZM14.3661 2.24931C13.9593 2.21465 13.5525 2.24237 13.1457 2.23198C13.0876 2.23198 13.0261 2.25277 12.9748 2.20078C13.4329 1.79528 13.8909 1.38978 14.3661 0.96695V2.24931ZM20.8642 31.2826C20.7924 31.2618 20.8163 31.2028 20.8163 31.1578C20.8163 30.8147 20.8163 30.4715 20.8163 30.125C21.2915 30.125 21.7632 30.125 22.2759 30.125C21.7905 30.5235 21.3257 30.9048 20.8642 31.2826ZM22.8297 29.314C22.8297 29.3798 22.8229 29.4457 22.8194 29.5115C22.211 29.5115 21.606 29.5011 20.9975 29.5115C20.8403 29.5115 20.8095 29.4665 20.8095 29.3174C20.8129 21.7203 20.8129 14.1267 20.8095 6.5296C20.8095 5.2923 20.3583 4.23523 19.4695 3.39303C18.738 2.69986 17.8698 2.31516 16.8614 2.25624C16.2837 2.22158 15.7094 2.24237 15.1318 2.23891C14.995 2.23891 14.9677 2.19732 14.9677 2.06562C14.9711 1.58387 14.9677 1.09865 14.9608 0.616901C14.9848 0.613435 15.0087 0.603038 15.0326 0.603038C16.3794 0.603038 17.7262 0.557982 19.0696 0.616901C20.6488 0.686217 21.7803 1.50762 22.4708 2.94247C22.7271 3.47621 22.8297 4.05154 22.8297 4.64073C22.8297 12.8651 22.8297 21.093 22.8297 29.3174V29.314Z" fill="#202020"/>
<path id="Vector_14" d="M14.5776 0.0277266C14.5776 0.0277266 14.5845 0.0103975 14.5776 0H19.0658C19.0727 0.020795 19.0658 0.0381241 19.0487 0.0519874C18.9769 0.0901116 18.9017 0.0797141 18.8265 0.0797141C17.49 0.0797141 16.1535 0.0797141 14.8169 0.0797141C14.7349 0.0797141 14.646 0.0970432 14.5742 0.0277266H14.5776Z" fill="#202020"/>
<path id="Vector_15" d="M19.0703 0.0242608C19.0703 0.0242608 19.0703 0.00693166 19.0703 0H19.2515C19.2515 0 19.2515 0.0173291 19.2549 0.0277266C19.1934 0.0831799 19.1318 0.0831799 19.0703 0.0277266V0.0242608Z" fill="#202020"/>
<path id="Vector_16" d="M22.8238 29.515C22.7828 29.5566 22.7281 29.5358 22.6802 29.5358C20.161 29.5358 17.6417 29.5358 15.119 29.5428C14.9789 29.5428 14.9481 29.5012 14.9481 29.366C14.9481 20.4172 14.9481 11.4685 14.9481 2.52315C14.9481 1.93742 14.9481 1.3517 14.9481 0.765974C14.9481 0.717452 14.931 0.665465 14.9618 0.616943C15.0301 0.675862 15.0165 0.755577 15.0165 0.828359C15.0165 1.2096 15.0165 1.59084 15.0165 1.97208C15.0165 2.16617 15.0267 2.17657 15.225 2.17657C15.6317 2.17657 16.0385 2.17657 16.4453 2.17657C17.211 2.1835 17.9459 2.3256 18.6193 2.70684C19.8601 3.41387 20.5951 4.48134 20.8207 5.9058C20.8583 6.13454 20.8651 6.37022 20.8651 6.6059C20.8651 14.1198 20.8651 21.6337 20.8651 29.1476C20.8651 29.4838 20.8549 29.4561 21.1659 29.4561C21.6445 29.4561 22.1196 29.4561 22.5982 29.4561C22.6768 29.4561 22.7623 29.4388 22.8238 29.5081V29.515Z" fill="#58CDCE"/>
<path id="Vector_17" d="M14.3704 2.2528C14.3739 2.30825 14.3807 2.3637 14.3807 2.41916C14.3807 11.4338 14.3807 20.4519 14.3807 29.4665C14.3807 29.567 14.3739 29.6502 14.2884 29.723C13.7859 30.1389 13.2903 30.5617 12.7946 30.9811C12.781 30.9949 12.7639 31.0053 12.7365 31.0226C12.7092 30.9256 12.7297 30.8355 12.7297 30.7488C12.7365 29.8928 12.7502 29.0402 12.7536 28.1841C12.7604 25.7061 12.7673 23.2245 12.7639 20.7465C12.7639 18.6046 12.7536 16.4592 12.7468 14.3173C12.7434 12.9033 12.7365 11.4858 12.7297 10.0717C12.7228 8.41851 12.716 6.76184 12.7057 5.10864C12.7023 4.30457 12.6989 3.50049 12.6818 2.69642C12.6784 2.51273 12.7228 2.3845 12.8732 2.29092C12.9108 2.26666 12.945 2.23547 12.9792 2.20774C13.3997 2.15922 13.8201 2.19041 14.2406 2.19041C14.2918 2.19041 14.3397 2.21121 14.3704 2.25626V2.2528Z" fill="#58CDCE"/>
<path id="Vector_18" d="M20.8649 31.2861C20.7897 31.3866 20.6872 31.4143 20.5641 31.4143C18.1748 31.4143 15.7854 31.4143 13.396 31.4143H13.1875C13.4165 31.2202 13.6079 31.0538 13.8028 30.8909C14.0797 30.6553 14.36 30.4265 14.6368 30.1874C14.6847 30.1458 14.7326 30.125 14.7975 30.125C16.7972 30.125 18.7935 30.125 20.7931 30.125C20.8034 30.125 20.8137 30.125 20.8239 30.1285C20.8718 30.177 20.8683 30.2394 20.8683 30.2983C20.8683 30.6275 20.8683 30.9568 20.8683 31.2861H20.8649Z" fill="#58CDCE"/>
</g>
</g>
</svg>
