<?xml version="1.0" encoding="UTF-8"?>
<svg id="Layer_1" data-name="Layer 1" xmlns="http://www.w3.org/2000/svg" viewBox="0 0 960 960">
  <defs>
    <style>
      .cls-1 {
        fill: #141414;
        stroke-width: 0px;
      }
    </style>
  </defs>
  <path class="cls-1" d="M754.87,543.69c26.73,0,41.17-22.47,41.17-47.61s-13.9-47.29-41.38-47.29c-12.5,0-23.6,5.28-28.34,13.07v-44.09h-24.06v123.99h24.06v-13.2c4.85,8.78,15.06,15.13,28.55,15.13ZM748.77,521.33c-14.76,0-23.53-11.77-23.53-26.21s9.52-26.1,23.74-26.1c15.72,0,23.52,12.73,23.52,26.1s-9.09,26.21-23.74,26.21ZM843.19,541.76h24.38v-45.9c0-13.69,4.81-24.61,18.39-24.61s16.47,11.02,16.47,23.86v46.64h24.38v-54.13c0-23.22-11.65-38.83-32.4-38.83-11.98,0-23.62,5.08-27.48,18.77v-13.53h-23.74v87.73ZM804.2,443.1h28.16v-26.81h-28.16v26.81ZM806.04,541.76h24.49v-87.73h-24.49v87.73ZM651.47,543.69c26.73,0,41.17-22.47,41.17-47.61s-13.9-47.29-41.38-47.29c-12.5,0-23.6,5.28-28.34,13.07v-44.09h-24.06v123.99h24.06v-13.2c4.85,8.78,15.06,15.13,28.55,15.13ZM645.37,521.33c-14.76,0-23.52-11.77-23.52-26.21s9.52-26.1,23.74-26.1c15.72,0,23.53,12.73,23.53,26.1s-9.09,26.21-23.74,26.21ZM541.33,520.94c-15.34,0-23.76-11.35-23.76-25.28,0-14.91,9.4-25.28,23.76-25.28,15.77,0,24.41,11.99,24.41,25.28s-8.96,25.28-24.41,25.28ZM541.33,543.79c28.98,0,47.48-20.01,47.48-47.5s-19.14-47.93-47.48-47.93-46.84,20.33-46.84,47.93,19.14,47.5,46.84,47.5ZM352.81,542.62h23.95v-85.29l30.47,80.36h22.88l30.48-80.36v85.29h23.95v-124.85h-31.12l-34.75,94.36-34.65-94.36h-31.22v124.85ZM126.41,542.62h70.68l28.85-30.8v30.8h77.92v-73.75h-43.77v-51.07h-66.24l-29.78,31.05v-31.05h-76.45l-55.31,58.41v66.37l63.63.03,30.48-32.54v32.54Z"/>
</svg>