<?xml version="1.0" encoding="utf-8"?>
<!-- Generator: Adobe Illustrator 29.2.1, SVG Export Plug-In . SVG Version: 9.03 Build 55982)  -->
<svg version="1.1" id="Calque_1" xmlns="http://www.w3.org/2000/svg" xmlns:xlink="http://www.w3.org/1999/xlink" x="0px" y="0px"
	 viewBox="0 0 1500 350" style="enable-background:new 0 0 1500 350;" xml:space="preserve">
<style type="text/css">
	.st0{clip-path:url(#SVGID_00000093893722658515421060000011888107710222894746_);}
	.st1{fill:#1510DE;}
</style>
<g>
	<defs>
		<rect id="SVGID_1_" x="8.82" y="-0.19" width="1482.4" height="340.37"/>
	</defs>
	<clipPath id="SVGID_00000132802136083732481570000016015280518939933094_">
		<use xlink:href="#SVGID_1_"  style="overflow:visible;"/>
	</clipPath>
	<g style="clip-path:url(#SVGID_00000132802136083732481570000016015280518939933094_);">
		<path class="st1" d="M78.78,278.62c0,4.44,1.02,5.8,6.14,5.8h11.6v36.86H13.94v-36.86h6.48c5.12,0,6.14-1.37,6.14-5.8V123
			c0-4.44-1.02-6.14-6.14-6.14h-6.48V80.34h59.72v19.79c7.85-16.04,25.25-23.89,40.27-23.89c16.38,0,32.42,7.85,41.63,26.96
			c6.83,14.67,9.21,32.42,9.21,65.18c0,32.42-2.39,50.85-8.87,64.84c-8.19,19.11-24.23,27.3-41.98,27.3
			c-11.94,0-25.94-6.14-35.15-19.45V278.62z M110.52,196.37v-55.97c0-13.99-6.14-20.82-16.04-20.82c-9.56,0-15.7,6.83-15.7,20.82
			v55.97c0,14.67,6.14,20.13,15.7,20.13C104.38,216.51,110.52,211.05,110.52,196.37z"/>
		<path class="st1" d="M172.62,219.24h6.48c5.12,0,6.14-1.71,6.14-6.14V59.53c0-4.44-1.02-6.14-6.14-6.14h-6.48V16.87h64.84v83.61
			c9.56-16.04,23.55-24.23,39.59-24.23c14.67,0,27.3,5.8,35.15,19.11c5.46,8.87,8.19,21.84,8.19,38.9v78.83
			c0,4.44,1.02,6.14,6.48,6.14h6.14v36.51h-64.84V138.7c0-9.9-5.12-15.7-14.33-15.7c-11.26,0-16.38,9.9-16.38,22.18v67.91
			c0,4.44,1.02,6.14,6.14,6.14h8.19v36.51h-79.17V219.24z"/>
		<path class="st1" d="M406.04,213.1c0,4.44,1.02,6.14,6.14,6.14h6.48v36.51h-77.47v-36.51h6.48c5.12,0,6.14-1.71,6.14-6.14V123
			c0-4.44-1.02-6.14-6.14-6.14h-6.48V80.34h64.84V213.1z M379.43,67.04c-16.38,0-29.01-12.29-29.01-28.32
			c0-16.04,12.63-28.33,29.01-28.33c16.38,0,29.01,12.29,29.01,28.33C408.43,54.75,395.81,67.04,379.43,67.04z"/>
		<path class="st1" d="M423.79,16.87h65.52V213.1c0,4.44,1.02,6.14,6.14,6.14h7.17v36.51h-78.83v-36.51h7.17
			c5.12,0,6.14-1.71,6.14-6.14V59.53c0-4.44-1.02-6.14-6.14-6.14h-7.17V16.87z"/>
		<path class="st1" d="M521.38,233.23c-8.19-13.99-11.94-33.44-11.94-64.84c0-31.4,3.75-50.51,11.94-64.5
			c11.94-20.13,34.81-27.64,58.36-27.64c23.55,0,46.41,7.51,58.36,27.64c8.19,13.99,11.94,33.1,11.94,64.5
			c0,31.4-3.75,50.85-11.94,64.84c-11.94,19.45-34.81,27.3-58.36,27.3C556.19,260.53,533.33,252.68,521.38,233.23z M595.78,200.47
			v-64.16c0-13.65-6.14-19.45-16.04-19.45s-16.04,5.8-16.04,19.45v64.16c0,13.65,6.14,19.45,16.04,19.45
			S595.78,214.12,595.78,200.47z"/>
		<path class="st1" d="M695.08,239.03l-4.1,16.72h-31.05v-58.01h42.66v9.56c0,11.94,7.17,18.77,16.72,18.77
			c7.85,0,14.67-4.44,14.67-14.33c0-9.56-9.56-14.33-22.86-21.16l-16.38-8.19c-22.86-11.26-35.15-26.28-35.15-53.24
			c0-29.69,20.82-52.9,51.87-52.9c20.48,0,31.74,8.53,38.22,19.79l4.1-15.7h27.98v56.31h-40.95v-7.17c0-12.29-5.8-19.79-15.36-19.79
			c-8.53,0-14.33,5.46-14.33,13.99c0,6.48,4.78,11.94,13.99,16.72l11.94,6.14c29.69,14.67,51.53,26.62,51.53,60.06
			c0,34.81-25.59,53.24-51.87,53.24C715.22,259.85,701.57,249.95,695.08,239.03z"/>
		<path class="st1" d="M807.69,233.23c-8.19-13.99-11.94-33.44-11.94-64.84c0-31.4,3.75-50.51,11.94-64.5
			c11.94-20.13,34.81-27.64,58.36-27.64c23.55,0,46.41,7.51,58.36,27.64c8.19,13.99,11.94,33.1,11.94,64.5
			c0,31.4-3.75,50.85-11.94,64.84c-11.94,19.45-34.81,27.3-58.36,27.3C842.5,260.53,819.64,252.68,807.69,233.23z M882.09,200.47
			v-64.16c0-13.65-6.14-19.45-16.04-19.45c-9.9,0-16.04,5.8-16.04,19.45v64.16c0,13.65,6.14,19.45,16.04,19.45
			C875.95,219.92,882.09,214.12,882.09,200.47z"/>
		<path class="st1" d="M1008.01,278.62c0,4.44,1.02,5.8,6.14,5.8h11.6v36.86h-82.58v-36.86h6.48c5.12,0,6.14-1.37,6.14-5.8V123
			c0-4.44-1.02-6.14-6.14-6.14h-6.48V80.34h59.72v19.79c7.85-16.04,25.25-23.89,40.27-23.89c16.38,0,32.42,7.85,41.63,26.96
			c6.83,14.67,9.21,32.42,9.21,65.18c0,32.42-2.39,50.85-8.87,64.84c-8.19,19.11-24.23,27.3-41.97,27.3
			c-11.94,0-25.94-6.14-35.15-19.45V278.62z M1039.75,196.37v-55.97c0-13.99-6.14-20.82-16.04-20.82c-9.56,0-15.7,6.83-15.7,20.82
			v55.97c0,14.67,6.14,20.13,15.7,20.13C1033.61,216.51,1039.75,211.05,1039.75,196.37z"/>
		<path class="st1" d="M1101.85,219.24h6.48c5.12,0,6.14-1.71,6.14-6.14V59.53c0-4.44-1.02-6.14-6.14-6.14h-6.48V16.87h64.84v83.61
			c9.56-16.04,23.55-24.23,39.59-24.23c14.67,0,27.3,5.8,35.15,19.11c5.46,8.87,8.19,21.84,8.19,38.9v78.83
			c0,4.44,1.02,6.14,6.48,6.14h6.14v36.51h-64.84V138.7c0-9.9-5.12-15.7-14.33-15.7c-11.26,0-16.38,9.9-16.38,22.18v67.91
			c0,4.44,1.02,6.14,6.14,6.14h8.19v36.51h-79.17V219.24z"/>
		<path class="st1" d="M1335.62,213.1c0,4.44,1.02,6.14,6.14,6.14h6.48v36.51h-77.47v-36.51h6.48c5.12,0,6.14-1.71,6.14-6.14V123
			c0-4.44-1.02-6.14-6.14-6.14h-6.48V80.34h64.84V213.1z M1309,67.04c-16.38,0-29.01-12.29-29.01-28.32
			c0-16.04,12.63-28.33,29.01-28.33c16.38,0,29.01,12.29,29.01,28.33C1338,54.75,1325.38,67.04,1309,67.04z"/>
		<path class="st1" d="M1484.75,192.96c8.19,49.14-24.57,67.23-63.82,67.23c-23.21,0-46.75-8.19-59.04-27.64
			c-8.19-13.99-11.6-32.42-11.6-63.82c0-31.74,4.44-50.51,12.97-64.5c11.94-20.13,34.47-27.98,57.67-27.98
			c22.86,0,43.34,7.51,55.97,27.64c7.85,11.26,10.24,26.96,10.24,49.82v24.91h-82.59v19.11c0,9.56,2.05,21.84,17.4,21.84
			c16.38,0,18.77-12.63,16.38-26.62H1484.75z M1437.65,137.68c0-13.31-5.12-20.82-16.38-20.82s-16.72,8.19-16.72,20.82v13.65h33.1
			V137.68z"/>
	</g>
	<path style="clip-path:url(#SVGID_00000132802136083732481570000016015280518939933094_);" d="M1472.63,284.82
		c0,8.76-7.75,11.77-16.83,12.31c1.61-11.22,6.81-17.97,12.1-17.97C1470.93,279.16,1472.63,280.99,1472.63,284.82 M1469.61,274.42
		c-15.88,0-26.19,14.78-26.19,30.1c0,11.04,5.96,17.42,16.83,17.42c10.11,0,17.96-5.84,21.08-15.69l-5.01-1.73
		c-3.5,8.03-7.37,11.04-12.76,11.04c-6.81,0-8.6-4.47-8.41-13.5c7.85-0.27,27.6-2.01,27.6-16.88
		C1482.75,278.16,1477.74,274.42,1469.61,274.42 M1430.09,321.94c5.2,0,8.98-2.65,11.63-6.2l-2.55-2.46
		c-1.51,1.64-2.93,2.55-4.44,2.55c-1.99,0-2.84-0.91-2.84-2.92c0-8.21,6.52-18.79,6.52-28.37c0-6.29-3.69-10.12-9.45-10.12
		c-10.02,0-16.17,8.48-19.95,16.87l-0.57-0.27l3.88-14.69l-0.38-0.91h-17.49l-0.85,4.65l6.9,0.82l-3.31,22.99l-4.16,17.7
		c2.55-0.55,9.17-1,12.01-0.91c0.66-5.2,2.17-13.32,4.54-20.8c2.93-8.94,9.36-18.42,15.31-18.42c2.17,0,3.03,1.19,3.03,3.47
		c0,6.57-6.9,21.07-6.9,28.82C1421.01,319.3,1424.8,321.94,1430.09,321.94 M1385.09,258.13c-4.92,0-8.13,3.47-8.13,7.85
		c0,3.01,1.42,5.38,5.96,5.38c4.92,0,8.13-3.28,8.13-7.75C1391.05,259.68,1388.78,258.13,1385.09,258.13 M1388.4,276.33
		c-2.27,10.03-4.82,19.79-6.62,28.09c-0.57,2.55-1.32,6.29-1.32,8.3c0,2.19,1.13,3.1,3.02,3.1c1.51,0,2.93-0.82,4.54-2.55l2.55,2.46
		c-2.84,3.92-7.09,6.2-11.53,6.2c-5.58,0-9.45-2.46-9.45-8.57c0-2.01,0.85-6.2,2.08-11.58c1.61-7.02,3.69-15.96,4.73-20.89l-7-0.82
		l0.85-4.65h17.77L1388.4,276.33z M1329.04,310.17c-5.48,0.46-9.55,3.47-9.55,7.3c0,2.28,1.51,4.47,4.73,4.47
		c3.03,0,5.96-1.82,7.85-8.21l8.04,5.11c3.21,2.01,5.39,3.1,9.45,3.1c5.96,0,11.15-4.74,14.27-18.43l-4.16-0.73
		c-2.36,6.2-3.78,7.48-7.47,7.48c-4.25,0-10.21-0.36-16.17-0.73c6.71-6.2,14.75-14.78,21.65-23.26c5.86-0.64,9.17-4.29,9.17-7.66
		c0-2.37-1.89-4.11-4.54-4.11s-6.62,1.82-8.04,8.21l-7.56-4.83c-3.12-2.1-5.58-3.47-9.17-3.47c-6.52,0-10.59,4.2-13.99,16.87
		l4.06,0.82c1.8-4.93,3.03-6.48,6.62-6.48c3.69,0,9.64,0.64,16.26,1.37C1343.31,293.94,1336.03,301.24,1329.04,310.17
		 M1284.89,315.56c-4.44,0-5.67-3.56-5.67-9.12c0-11.31,3.97-26.91,13.42-26.91c5.01,0,6.81,3.83,6.81,8.85
		C1299.45,297.4,1294.25,315.56,1284.89,315.56 M1314.29,274.97c-2.93,0.36-5.96,0.55-10.68,0.55l-1.8,6.29
		c-1.7-4.65-5.2-7.39-10.97-7.39c-15.12,0-23.35,17.51-23.35,31.38c0,10.31,4.63,16.14,13.42,16.14c8.6,0,14.37-6.29,16.92-12.77
		l0.47,0.09c-0.38,1.64-0.76,3.38-0.76,4.84c0,4.83,2.65,7.84,8.32,7.84c4.73,0,8.7-3.28,10.78-6.48l-2.74-2.55
		c-1.32,1.55-2.65,2.74-4.35,2.74c-1.89,0-2.74-1.09-2.74-2.83c0-1.46,0.19-2.74,0.95-6.93
		C1309.19,297.5,1311.64,286.64,1314.29,274.97 M1237.43,313.55c-4.73,0-6.15-3.47-6.15-8.94c0-10.4,3.69-24.9,13.33-24.9
		c4.44,0,6.62,3.47,6.62,9.39C1251.24,298.23,1245.94,313.55,1237.43,313.55 M1266.27,274.97c-3.12,0.46-7.47,0.64-10.68,0.55
		l-1.7,6.29c-1.8-4.74-5.2-7.39-11.16-7.39c-15.03,0-23.07,15.87-23.07,29.64c0,10.12,4.73,16.05,13.99,16.05
		c8.04,0,13.05-5.38,15.69-11.67l0.47,0.18c-0.85,3.47-1.8,7.12-2.74,10.22c-2.93,9.76-6.81,17.15-16.17,17.15
		c-3.78,0-5.48-0.91-5.48-2.64c0-0.46,0.09-0.91,0.28-1.46l4.16-0.64c0.09-0.82,0.19-1.55,0.19-2.28c0-4.1-2.84-6.02-5.96-6.02
		c-4.73,0-7.47,3.28-7.47,7.66c0,6.48,5.58,9.58,13.99,9.58c13.33,0,23.54-6.38,27.23-23.9
		C1260.31,304.7,1263.62,286.64,1266.27,274.97 M1186.39,315.56c-4.44,0-5.67-3.56-5.67-9.12c0-11.31,3.97-26.91,13.42-26.91
		c5.01,0,6.81,3.83,6.81,8.85C1200.94,297.4,1195.74,315.56,1186.39,315.56 M1215.79,274.97c-2.93,0.36-5.95,0.55-10.68,0.55
		l-1.8,6.29c-1.7-4.65-5.2-7.39-10.97-7.39c-15.13,0-23.35,17.51-23.35,31.38c0,10.31,4.63,16.14,13.42,16.14
		c8.6,0,14.37-6.29,16.92-12.77l0.47,0.09c-0.38,1.64-0.76,3.38-0.76,4.84c0,4.83,2.65,7.84,8.32,7.84c4.73,0,8.7-3.28,10.78-6.48
		l-2.74-2.55c-1.32,1.55-2.65,2.74-4.35,2.74c-1.89,0-2.74-1.09-2.74-2.83c0-1.46,0.19-2.74,0.95-6.93
		C1210.68,297.5,1213.14,286.64,1215.79,274.97 M1130.04,274.42c-9.74,0-15.31,7.84-19.1,16.78l-0.57-0.27l3.78-14.6l-0.28-0.91
		h-17.39l-0.85,4.65l6.9,0.82l-3.31,22.99l-4.16,17.7c2.55-0.55,9.17-1,12.01-0.91c1.04-7.93,2.17-13.41,4.25-20.07
		c2.46-8.12,9.17-19.15,14.84-19.15c1.7,0,2.65,1,2.65,3.01c0,7.21-6.62,24.54-8.79,37.03c3.59-0.37,7.94-0.91,11.44-0.82
		c1.13-6.84,2.84-14.68,5.1-20.8c3.4-9.39,8.6-18.42,13.61-18.42c2.08,0,3.12,1.1,3.12,3.56c0,6.75-6.9,20.71-6.9,28.82
		c0,5.56,3.88,8.12,9.17,8.12c4.73,0,8.98-2.55,11.53-6.11l-2.55-2.55c-1.7,1.82-3.21,2.55-4.54,2.55c-1.98,0-2.74-1.19-2.74-2.83
		c0-8.03,6.52-19.06,6.52-28.18c0-6.84-3.5-10.4-9.74-10.4c-7,0-12.1,3.65-17.58,16.24l-0.57-0.27c1.23-3.47,1.8-6.29,1.8-8.48
		C1137.7,276.33,1134.3,274.42,1130.04,274.42"/>
</g>
</svg>
