<?xml version="1.0" encoding="utf-8"?>
<!-- Generator: Adobe Illustrator 26.3.1, SVG Export Plug-In . SVG Version: 6.00 Build 0)  -->
<svg version="1.1" id="Layer_1" xmlns="http://www.w3.org/2000/svg" xmlns:xlink="http://www.w3.org/1999/xlink" x="0px" y="0px"
	 viewBox="0 0 1000 405.5" style="enable-background:new 0 0 1000 405.5;" xml:space="preserve">
<path d="M202.4,101.5c-55.8,0-101.2,45.4-101.2,101.2c0,55.8,45.4,101.2,101.2,101.2s101.2-45.4,101.2-101.2
	C303.6,146.9,258.2,101.5,202.4,101.5z M202.4,110.2c7.8,0,15.4,1,22.7,2.8c-2.8,24.1-10.6,51.3-22.7,51.3h0
	c-12.1,0-19.9-27.2-22.7-51.3C186.9,111.1,194.5,110.2,202.4,110.2z M162.1,119.3c5.7,23.2,23.3,50.6,40.2,50.7h0
	c17,0,34.5-27.4,40.2-50.7c4.6,2.2,9,4.8,13.2,7.8c-8.9,21-28.6,50.7-53.4,51.4c-24.7-0.7-44.5-30.4-53.4-51.4
	C153.1,124.2,157.5,121.6,162.1,119.3z M202.4,295.3c-7.8,0-15.4-1-22.7-2.8c2.8-24.1,10.6-51.3,22.7-51.3h0
	c12.1,0,19.9,27.2,22.7,51.3C217.8,294.4,210.2,295.3,202.4,295.3z M242.6,286.1c-5.7-23.2-23.3-50.6-40.2-50.7h0
	c-17,0-34.5,27.4-40.2,50.7c-4.6-2.2-9-4.8-13.2-7.8c8.9-21,28.6-50.7,53.4-51.4c24.7,0.7,44.5,30.4,53.4,51.4
	C251.6,281.3,247.2,283.9,242.6,286.1z M270.3,265.6c-12.4-18.5-39.2-44.4-67.9-44.4c-28.7,0-55.5,25.9-67.9,44.4
	c-3.4-3.7-6.5-7.6-9.3-11.8c13.1-16.9,40.6-41.2,77.2-41.2c36.5,0,64.1,24.3,77.2,41.2C276.8,258,273.7,261.9,270.3,265.6z
	 M294.9,202.7c0,11.7-2.2,22.9-6.2,33.2c-20.9-17.4-53-28.9-86.4-28.9s-65.5,11.5-86.4,29c-4-10.3-6.2-21.5-6.2-33.2
	c0-11.7,2.2-22.9,6.2-33.2c20.9,17.4,53,29,86.4,29c33.4,0,65.5-11.5,86.4-28.9C292.7,179.8,294.9,191,294.9,202.7z M202.4,192.8
	c-36.5,0-64.1-24.3-77.2-41.2c2.8-4.2,5.9-8.1,9.3-11.8c12.4,18.5,39.2,44.4,67.9,44.4c28.7,0,55.5-25.9,67.9-44.4
	c3.4,3.7,6.5,7.6,9.2,11.8C266.4,168.5,238.9,192.8,202.4,192.8z M764.4,175.4c-1.2,2.3-6.5,9.6-17.5,9.6c-8.7,0-14.2-4.6-16.6-11.8
	c1.2,0.1,2.5,0.2,3.7,0.2c17.1,0,28.4-7.1,28.4-17.3c0-9.2-9.2-15.7-21.8-15.7c-18.7,0-30.6,11.9-30.6,29.7
	c0,17.3,11.1,28.5,27.2,28.5c19.5,0,27.5-16.5,28.3-23C765.7,174.8,764.9,174.4,764.4,175.4z M728.9,164.2c0-9,3-20.5,10.2-20.5
	c2.9,0,4.8,2.9,4.7,9c0,10.2-5.1,16.6-14.1,18.5C729.3,169.1,728.9,166.7,728.9,164.2z M332.6,127.4c-0.6-0.6-0.7-1.9,0.8-2h0.2
	h26.9c1,0,1,0.2,1.4,0.5c1.6,0.8,11,21.1,7,40.1c8.9-16.3,16.6-27.2,16.7-27.6c0.6-0.8,1.1-1,1.7-0.7c0.8,0.4,0.7,1.1,0.6,1.4
	c-3.1,15.1-0.8,31.1,4,39.3c4.6,7.7,13.9,9.9,17.2,2c8.3-19.2-12.5-42.3-16.6-46.6c-1.9-2-1.3-3.6-0.8-4.2c9-8.6,21.1-5.5,25.2,1.2
	c4,6.6,7.7,16.9,2.6,35c-2.8,10-9.4,29.6-31.7,33c-4.3,0.6-5.8-1-7.3-3.1c-3-4.2-6.7-13.2-5.2-24.8c0.7-5.4,1.9-8.9,3.5-13.6
	l-0.8,1.4c-6.9,12.8-14.2,27.3-21.3,37.9l-0.8,1.2c-0.8,1.2-1.7,1.4-2.2,1.1c-0.5-0.2-0.4-1.1-0.1-2.3
	C361.9,163,339.5,135.6,332.6,127.4z M621.7,196c2.3-4,3.4-7.8,3.5-12.2V183v-25.3c0-6.5-1.8-9-3-10.5c-0.2-0.2-0.2-0.7,0.1-0.8h0.1
	l19.6-5.4c1.1-0.4,1.4-0.4,1.8-0.4s0.6,0.2,0.6,0.6c0,2-0.2,7-0.4,12.3c3.4-8.2,9.5-12.9,16.6-12.9c6.9,0,11.7,4.5,13.2,12.4
	l0.1,0.6h0.2c3-8.4,9.2-13.1,16.4-13.1c8.6,0,13.6,6.7,13.9,18.2v24.4c0,4.5,1.1,9.3,3,12.9c0.1,0.4,0,0.7-0.2,0.7h-0.1h-24.3
	c-0.4,0-0.6-0.4-0.4-0.7c1.9-3.9,2.9-7.7,3-12v-0.8v-23.2c0-4.9-1.9-7.8-4.9-7.8c-3.6,0-6,3.9-6.1,10.8v20.2c0,4.5,1.3,9.2,3,12.9
	c0.1,0.4,0,0.7-0.2,0.7h-0.1h-24.3c-0.4,0-0.6-0.4-0.4-0.7c1.8-4,2.9-7.7,3-12v-0.8v-23.2c0-4.9-1.9-7.8-4.9-7.8
	c-3.6,0-6,3.9-6.1,10.8v0.6v19.6c0,4.5,1.2,9.3,3,12.9c0.2,0.4,0,0.7-0.2,0.7H647h-24.8C621.7,196.7,621.6,196.3,621.7,196z
	 M535.1,198.7c15.7,0,23.6-10.8,26.5-18.4c3,10.1,11.4,18.4,28.5,18.4c16.7,0,28.9-12.9,28.9-30.6c0-14.9-9.9-27.7-29.5-27.7
	c-17,0-29.5,12.8-29.3,30.2c0,2.3,0.2,4.5,0.6,6.6c-2.3,3-7.5,7.9-16.3,7.9c-11.8,0-17.8-8.9-17.8-21.2c0-8.6,2.9-20.2,9.3-20.2
	c5.2,0,6.9,8.1,4.8,18.2c-0.4,1.4,0.1,1.7,0.8,1.4l15.2-4.5l0.2-0.1c2-0.8,2.2-2.8,0.8-5.2c-5.3-9.3-12.6-13.2-21.7-13.2
	c-15.3,0-28.4,10.7-28.4,29.7C507.9,187.3,518.8,198.7,535.1,198.7z M588.2,143.7h0.2h0.4c5.5,0.2,8.2,9.2,9.2,25.5
	c0.8,16.9-1.2,26-7,26.4c-5.9,0.2-8.7-8.7-9.6-25.7C580.5,153.1,582.4,144.1,588.2,143.7z M478.6,175.7c0.1-1-0.7-1.3-1.2-0.4
	c-1.2,2.3-6.5,9.6-17.5,9.6c-8.7,0-14.2-4.6-16.6-11.8c1.1,0.1,2.3,0.2,3.7,0.2c17.1,0,28.4-7.1,28.4-17.3c0-9.2-9-15.7-21.8-15.7
	c-18.7,0-30.6,11.9-30.7,29.7c0,17.3,11.2,28.5,27.3,28.5C469.8,198.7,477.8,182.2,478.6,175.7z M441.9,164.2c0-9,3-20.5,10.2-20.5
	c2.9,0,4.8,2.9,4.8,9c0,10.2-5.2,16.6-14.2,18.5C442.2,169.1,441.9,166.7,441.9,164.2z M476.9,128.9c-0.2-0.2-0.2-0.7,0.1-0.8h0.1
	l22.9-6.6c0.8-0.4,1.3-0.5,1.6-0.5c0.4,0,0.6,0.2,0.6,0.6c0,0.6-0.4,3-0.4,6.9V183c0,4.5,1.6,9.2,3.5,12.9c0.2,0.4,0,0.7-0.2,0.7
	H505h-25.3c-0.4,0-0.6-0.4-0.4-0.7c2-4,3.3-7.7,3.5-12v-40.5c0-5.1-1.7-9.2-4.5-12.6l-0.4-0.5L476.9,128.9z M897.8,256.9
	c-1.2,2.3-6.5,9.6-17.5,9.6c-8.7,0-14.2-4.7-16.6-11.9c1.1,0.1,2.3,0.2,3.7,0.2c17.1,0,28.4-7.1,28.4-17.3c0-9.2-9-15.7-21.8-15.7
	c-18.5,0-30.6,11.9-30.7,29.9c0,17.3,11.2,28.5,27.3,28.5c19.5,0,27.5-16.5,28.3-23C899.1,256.3,898.2,255.9,897.8,256.9z
	 M862.2,245.6c0-9,3-20.5,10.2-20.5c3,0,4.8,2.9,4.7,9c0,10.2-5.1,16.5-14.1,18.5C862.6,250.5,862.2,248.1,862.2,245.6z M841,277.3
	c0.1,0.4,0,0.7-0.2,0.7h-0.1h-25.2c-0.4,0-0.6-0.4-0.4-0.7c2-4,3.3-7.7,3.4-12v-0.8v-39.6c0-5.1-1.7-9.2-4.5-12.6l-0.4-0.5l-1.1-1.3
	c-0.2-0.2-0.2-0.7,0.1-0.8h0.1l22.9-6.6c0.8-0.4,1.3-0.5,1.6-0.5c0.4,0,0.6,0.2,0.6,0.6c0,0.6-0.4,3-0.4,6.9v54.6
	C837.5,268.8,839.1,273.5,841,277.3z M481.6,224.4v0.1l-1.8,4.2c-0.1,0.2-0.2,0.5-0.6,0.5h-0.1h-11.2v34.7c0,5.2,2.3,7.5,6.6,7.5
	c2.6,0,4.6-0.6,5.7-1.9c0.4-0.4,0.5-0.5,0.7-0.5c0.5,0,0.5,0.5,0.4,1.1c-2.4,6.5-8.6,9.9-17.1,9.9c-10.1,0-15.3-5.3-15.5-14.7v-0.5
	v-35.5H441c-0.4,0-0.6-0.2-0.6-0.5c0-0.4,0.2-0.7,1.1-1.3l0.2-0.1l24.1-16.1c1-0.6,1.4-0.8,1.8-0.8c0.4,0,0.6,0.2,0.6,0.6
	c0,0.8-0.4,5.7-0.4,12.4v0.6h13.2C481.5,223.9,481.8,224,481.6,224.4z M596.7,256.9c-1.2,2.3-6.5,9.6-17.5,9.6
	c-8.7,0-14.2-4.7-16.6-11.9c1.1,0.1,2.3,0.2,3.7,0.2c17.1,0,28.4-7.1,28.4-17.3c0-9.2-9.2-15.7-21.8-15.7
	c-18.7,0-30.6,11.9-30.6,29.9c0,17.3,11.1,28.5,27.2,28.5c19.5,0,27.5-16.5,28.3-23C598,256.3,597.1,255.9,596.7,256.9z
	 M561.1,245.6c0-9,3-20.5,10.2-20.5c2.9,0,4.7,2.9,4.8,9c0,10.2-5.2,16.5-14.2,18.5C561.5,250.5,561.1,248.1,561.1,245.6z
	 M540.5,277.4c0.1,0.4,0,0.7-0.2,0.7h-0.1h-25.3c-0.4,0-0.6-0.4-0.4-0.7c2-4,3.3-7.7,3.4-12v-0.8v-22.6c0-5.5-1.9-8.4-5.5-8.4
	c-4.2,0-6.6,3.9-6.7,11.4v19.6c0,4.5,1.6,9.2,3.5,12.9c0.1,0.4,0,0.7-0.2,0.7h-0.1h-25.2c-0.4,0-0.6-0.4-0.4-0.7c2-4,3.3-7.7,3.4-12
	v-0.8v-39.6c0-5.1-1.7-9.2-4.5-12.6l-0.4-0.5l-1.1-1.3c-0.2-0.2-0.2-0.7,0.1-0.8h0.1l22.9-6.6c1-0.5,1.3-0.6,1.6-0.6
	c0.4,0,0.6,0.2,0.6,0.6c0,0.6-0.4,3-0.4,6.9V234c3.5-7.8,9.4-12.2,17-12.2c9.2,0,14.3,6.7,14.5,18.8v23.8
	C537,268.9,538.6,273.6,540.5,277.4z M637.2,207.6c-2.3,2.4-4.1,5.1-4.2,10v45.8c0,19.8-9.6,28.8-30.5,28.8c-1.1,0-2-0.1-2.5-0.2
	c-0.8-0.2-1-1-0.2-1.4c8.3-3.6,13.1-11.3,13.4-21.3v-50.9c0-5.3-1.9-8.2-4.2-10.7c-0.2-0.2-0.4-0.8,0.1-1h27.8v0.1
	C637.5,206.7,637.5,207.3,637.2,207.6z M696.7,277.4c0.1,0.4,0,0.7-0.2,0.7h-0.1h-21.3c-0.4,0-0.6-0.1-0.6-0.5v-0.1v-10.2
	c-3.4,8.2-9.5,12.9-17.2,12.9c-9.2,0-14.3-6.7-14.5-18.7v-22.3c0-6.5-1.7-9.2-3-10.5c-0.2-0.2-0.2-0.7,0.1-0.8h0.1l19.6-5.4
	c1.1-0.4,1.4-0.4,1.8-0.4c0.4,0,0.6,0.1,0.6,0.5v37.8c0,5.5,1.9,8.4,5.5,8.4c4.2,0,6.6-3.9,6.7-11.4v-18.1c0-6.5-1.7-9.2-3-10.5
	c-0.2-0.2-0.2-0.7,0.1-0.8h0.1l19.6-5.4c0.7-0.6,1.1-0.7,1.4-0.7c0.4,0,0.6,0.1,0.6,0.5v0.1v42C693.3,268.9,694.8,273.6,696.7,277.4
	z M757,277.4c0.1,0.4,0,0.7-0.2,0.7h-0.1h-25.2c-0.4,0-0.6-0.4-0.4-0.7c2-4,3.3-7.7,3.4-12v-0.8v-22.6c0-5.5-1.9-8.4-5.5-8.4
	c-4.2,0-6.6,3.9-6.7,11.4v0.6v19c0,4.5,1.3,9.3,3.5,12.9c0.1,0.4,0,0.7-0.2,0.7h-0.1h-25.2c-0.5,0-0.6-0.4-0.5-0.7
	c2.3-4,3.4-7.8,3.5-12.2v-0.8v-25.3c0-6.6-1.8-9-3-10.5c-0.2-0.2-0.2-0.7,0.1-0.8h0.1l19.6-5.4c1.1-0.4,1.4-0.4,1.8-0.4
	c0.4,0,0.6,0.2,0.6,0.6c0,2-0.2,7-0.4,12.3c3-8.3,9.2-13,17-13c9,0,14.2,6.7,14.5,18.8v0.6v23.2C753.5,268.9,755,273.6,757,277.4z
	 M400.9,221.7c-17,0-29.5,12.6-29.5,30c0,5.1,1,10.1,3.3,14.6c-2.5,3-5.3,4.6-8.6,4.6c-4.2,0-6.6-2.5-6.6-7v-34.7h12.3h0.1
	c0.2,0,0.2-0.2,0.5-0.6l2-4.1v-0.1c0-0.4-0.4-0.5-0.7-0.5h-14.3v-0.6c0.1-6.7,0.5-11.6,0.5-12.4c0-0.4-0.2-0.6-0.6-0.6
	c-0.4,0-0.8,0.2-1.6,0.7l-24.1,16.1l-0.2,0.1c-0.8,0.6-1.1,1-1.1,1.3c0,0.2,0.2,0.5,0.6,0.5h7.6v36c0.2,9.4,6.1,14.7,16.4,14.7
	c8.7,0,15.7-4,19.4-11.2c4.5,6.7,12.4,11.4,25.3,11.4c16.7,0,28.9-12.9,28.9-30.6C430.4,234.5,420.6,221.7,400.9,221.7z M402.4,277
	c-5.9,0.4-8.7-8.7-9.6-25.7c-0.8-16.9,1.1-25.9,6.9-26.3h0.2h0.4c5.5,0.2,8.3,9.2,9.2,25.5C410.2,267.5,408.2,276.6,402.4,277z
	 M799.1,271h-19.8c-4.3-0.1-6.7-1.6-6.7-4.2c0-1.3,0.4-2.4,1.1-3.5c3.3,1.1,7.1,1.6,11.7,1.6c14.7,0,25.3-9.6,25.3-22.5
	c0-7.6-4.1-14.3-12.2-17.9h14c0.4,0,0.5-0.2,0.5-0.6c0-4.1-5.3-9.4-7.3-9.4c-0.2,0-0.6,0.1-1.2,0.5c-2.5,1.4-5.8,4.2-9,8.6
	c-3-0.8-6.5-1.3-10.5-1.3c-14.8,0-25.8,9.3-25.8,22c0,7.3,3.4,14.8,12.4,18.5c-7.3,2-12.2,7.1-12.2,12.5c0,4.5,2.4,7.7,6.9,9.6
	c-4.3,3.3-6.5,7-6.5,10.2c0,5.4,6,8.9,14.2,8.9c14.1,0,39.7-10.6,39.7-23.1C813.7,274.5,808.5,271,799.1,271z M783.8,225.1h0.2h0.2
	c4.3,0.2,6.9,6.5,7.6,17.9c0.7,11.6-1,18.3-5.8,18.5c-4.3,0.1-7.3-5.5-8.1-18.1C777.3,231.6,779.4,225.3,783.8,225.1z M788.4,296.5
	c-7.5,0-17-2-21.1-11.4c2.4,0.8,5.4,1.3,8.9,1.3h16.4c4.8,0,7,1.6,7,4.3C799.6,294.1,795,296.5,788.4,296.5z"/>
</svg>
